<svg width="53" height="53" viewBox="0 0 53 53" fill="none" xmlns="http://www.w3.org/2000/svg"><rect x="2.34033" y="1.87524" width="49" height="49" rx="24.5" fill="#FEC43C"/><rect x="2.34033" y="1.87524" width="49" height="49" rx="24.5" stroke="#003B20" stroke-width="3"/><path fill-rule="evenodd" clip-rule="evenodd" d="M22.8256 36.9377L13.2797 27.4315C12.6939 26.8481 12.6939 25.9023 13.2797 25.319L22.8256 15.8128C23.4114 15.2294 24.3611 15.2294 24.9469 15.8128C25.5327 16.3961 25.5327 17.3419 24.9469 17.9253L17.9617 24.8815H39.3403C40.1688 24.8815 40.8403 25.5503 40.8403 26.3752C40.8403 27.2002 40.1688 27.869 39.3403 27.869H17.9617L24.9469 34.8252C25.5327 35.4086 25.5327 36.3544 24.9469 36.9377C24.3611 37.5211 23.4114 37.5211 22.8256 36.9377Z" fill="#003B20"/></svg>