<svg width="34" height="23" viewBox="0 0 34 23" fill="none" xmlns="http://www.w3.org/2000/svg">
<path d="M2 9.87573C1.17157 9.87573 0.5 10.5473 0.5 11.3757C0.5 12.2042 1.17157 12.8757 2 12.8757L2 9.87573ZM33.0607 12.4364C33.6464 11.8506 33.6464 10.9009 33.0607 10.3151L23.5147 0.769133C22.9289 0.183346 21.9792 0.183346 21.3934 0.769132C20.8076 1.35492 20.8076 2.30467 21.3934 2.89045L29.8787 11.3757L21.3934 19.861C20.8076 20.4468 20.8076 21.3965 21.3934 21.9823C21.9792 22.5681 22.9289 22.5681 23.5147 21.9823L33.0607 12.4364ZM2 12.8757L32 12.8757L32 9.87574L2 9.87573L2 12.8757Z" fill="#DD1C74"/>
</svg>
