<svg width="53" height="53" viewBox="0 0 53 53" fill="none" xmlns="http://www.w3.org/2000/svg"><rect x="2.34033" y="1.87524" width="49" height="49" rx="24.5" fill="#FEC43C"/><rect x="2.34033" y="1.87524" width="49" height="49" rx="24.5" stroke="#003B20" stroke-width="3"/><path fill-rule="evenodd" clip-rule="evenodd" d="M30.8551 15.8128L40.401 25.319C40.9868 25.9023 40.9868 26.8481 40.401 27.4315L30.8551 36.9377C30.2693 37.5211 29.3195 37.5211 28.7337 36.9377C28.1479 36.3544 28.1479 35.4086 28.7337 34.8252L35.719 27.869L14.3403 27.869C13.5119 27.869 12.8403 27.2002 12.8403 26.3752C12.8403 25.5503 13.5119 24.8815 14.3403 24.8815L35.719 24.8815L28.7337 17.9253C28.1479 17.3419 28.1479 16.3961 28.7337 15.8128C29.3195 15.2294 30.2693 15.2294 30.8551 15.8128Z" fill="#003B20"/></svg>